<mxfile host="app.diagrams.net" agent="Mozilla/5.0 (Windows NT 10.0; Win64; x64) AppleWebKit/537.36 (KHTML, like Gecko) Chrome/127.0.0.0 Safari/537.36 Edg/127.0.0.0" version="24.7.6">
  <diagram name="Page-1" id="wVZpnyobrVz-R17wP1hu">
    <mxGraphModel dx="1426" dy="791" grid="1" gridSize="10" guides="1" tooltips="1" connect="1" arrows="1" fold="1" page="1" pageScale="1" pageWidth="850" pageHeight="1100" math="0" shadow="0">
      <root>
        <mxCell id="0" />
        <mxCell id="1" parent="0" />
        <mxCell id="Q_lBp70K0h9LBj4ufqfi-1" value="" style="endArrow=none;dashed=1;html=1;rounded=0;" edge="1" parent="1" source="Q_lBp70K0h9LBj4ufqfi-4" target="Q_lBp70K0h9LBj4ufqfi-2">
          <mxGeometry width="50" height="50" relative="1" as="geometry">
            <mxPoint x="285" y="880" as="sourcePoint" />
            <mxPoint x="285" y="410" as="targetPoint" />
          </mxGeometry>
        </mxCell>
        <mxCell id="Q_lBp70K0h9LBj4ufqfi-2" value="Back Office" style="whiteSpace=wrap;html=1;aspect=fixed;" vertex="1" parent="1">
          <mxGeometry x="110" y="330" width="90" height="90" as="geometry" />
        </mxCell>
        <mxCell id="Q_lBp70K0h9LBj4ufqfi-3" value="" style="endArrow=none;dashed=1;html=1;rounded=0;" edge="1" parent="1" target="Q_lBp70K0h9LBj4ufqfi-4">
          <mxGeometry width="50" height="50" relative="1" as="geometry">
            <mxPoint x="155" y="890" as="sourcePoint" />
            <mxPoint x="285" y="410" as="targetPoint" />
          </mxGeometry>
        </mxCell>
        <mxCell id="Q_lBp70K0h9LBj4ufqfi-4" value="" style="rounded=1;whiteSpace=wrap;html=1;" vertex="1" parent="1">
          <mxGeometry x="135" y="450" width="40" height="350" as="geometry" />
        </mxCell>
        <mxCell id="Q_lBp70K0h9LBj4ufqfi-5" value="" style="endArrow=none;dashed=1;html=1;rounded=0;" edge="1" parent="1" source="Q_lBp70K0h9LBj4ufqfi-4" target="Q_lBp70K0h9LBj4ufqfi-9">
          <mxGeometry width="50" height="50" relative="1" as="geometry">
            <mxPoint x="620" y="630" as="sourcePoint" />
            <mxPoint x="460" y="620" as="targetPoint" />
          </mxGeometry>
        </mxCell>
        <mxCell id="Q_lBp70K0h9LBj4ufqfi-10" value="&lt;font style=&quot;font-size: 15px;&quot;&gt;Get partner/list?{filters}&lt;/font&gt;" style="edgeLabel;html=1;align=center;verticalAlign=middle;resizable=0;points=[];" vertex="1" connectable="0" parent="Q_lBp70K0h9LBj4ufqfi-5">
          <mxGeometry x="-0.1" y="3" relative="1" as="geometry">
            <mxPoint as="offset" />
          </mxGeometry>
        </mxCell>
        <mxCell id="Q_lBp70K0h9LBj4ufqfi-6" value="" style="endArrow=none;dashed=1;html=1;rounded=0;" edge="1" parent="1" source="Q_lBp70K0h9LBj4ufqfi-9">
          <mxGeometry width="50" height="50" relative="1" as="geometry">
            <mxPoint x="525" y="880" as="sourcePoint" />
            <mxPoint x="525" y="410" as="targetPoint" />
          </mxGeometry>
        </mxCell>
        <mxCell id="Q_lBp70K0h9LBj4ufqfi-7" value="Corporate Management Service" style="whiteSpace=wrap;html=1;aspect=fixed;" vertex="1" parent="1">
          <mxGeometry x="480" y="340" width="90" height="90" as="geometry" />
        </mxCell>
        <mxCell id="Q_lBp70K0h9LBj4ufqfi-8" value="" style="endArrow=none;dashed=1;html=1;rounded=0;" edge="1" parent="1" target="Q_lBp70K0h9LBj4ufqfi-9">
          <mxGeometry width="50" height="50" relative="1" as="geometry">
            <mxPoint x="525" y="880" as="sourcePoint" />
            <mxPoint x="525" y="410" as="targetPoint" />
          </mxGeometry>
        </mxCell>
        <mxCell id="Q_lBp70K0h9LBj4ufqfi-9" value="" style="rounded=1;whiteSpace=wrap;html=1;" vertex="1" parent="1">
          <mxGeometry x="505" y="450" width="40" height="350" as="geometry" />
        </mxCell>
        <mxCell id="Q_lBp70K0h9LBj4ufqfi-24" value="filters" style="swimlane;fontStyle=0;childLayout=stackLayout;horizontal=1;startSize=30;horizontalStack=0;resizeParent=1;resizeParentMax=0;resizeLast=0;collapsible=1;marginBottom=0;whiteSpace=wrap;html=1;" vertex="1" parent="1">
          <mxGeometry x="245" y="100" width="140" height="150" as="geometry" />
        </mxCell>
        <mxCell id="Q_lBp70K0h9LBj4ufqfi-25" value="filters" style="swimlane;fontStyle=0;childLayout=stackLayout;horizontal=1;startSize=30;horizontalStack=0;resizeParent=1;resizeParentMax=0;resizeLast=0;collapsible=1;marginBottom=0;whiteSpace=wrap;html=1;" vertex="1" parent="1">
          <mxGeometry x="85" y="100" width="140" height="120" as="geometry" />
        </mxCell>
        <mxCell id="Q_lBp70K0h9LBj4ufqfi-26" value="type" style="text;strokeColor=none;fillColor=none;align=left;verticalAlign=middle;spacingLeft=4;spacingRight=4;overflow=hidden;points=[[0,0.5],[1,0.5]];portConstraint=eastwest;rotatable=0;whiteSpace=wrap;html=1;" vertex="1" parent="Q_lBp70K0h9LBj4ufqfi-25">
          <mxGeometry y="30" width="140" height="30" as="geometry" />
        </mxCell>
        <mxCell id="Q_lBp70K0h9LBj4ufqfi-27" value="corporateType" style="text;strokeColor=none;fillColor=none;align=left;verticalAlign=middle;spacingLeft=4;spacingRight=4;overflow=hidden;points=[[0,0.5],[1,0.5]];portConstraint=eastwest;rotatable=0;whiteSpace=wrap;html=1;" vertex="1" parent="Q_lBp70K0h9LBj4ufqfi-25">
          <mxGeometry y="60" width="140" height="30" as="geometry" />
        </mxCell>
        <mxCell id="Q_lBp70K0h9LBj4ufqfi-28" value="..etc" style="text;strokeColor=none;fillColor=none;align=left;verticalAlign=middle;spacingLeft=4;spacingRight=4;overflow=hidden;points=[[0,0.5],[1,0.5]];portConstraint=eastwest;rotatable=0;whiteSpace=wrap;html=1;" vertex="1" parent="Q_lBp70K0h9LBj4ufqfi-25">
          <mxGeometry y="90" width="140" height="30" as="geometry" />
        </mxCell>
        <mxCell id="Q_lBp70K0h9LBj4ufqfi-29" value="type" style="text;strokeColor=none;fillColor=none;align=left;verticalAlign=middle;spacingLeft=4;spacingRight=4;overflow=hidden;points=[[0,0.5],[1,0.5]];portConstraint=eastwest;rotatable=0;whiteSpace=wrap;html=1;" vertex="1" parent="1">
          <mxGeometry x="245" y="130" width="140" height="30" as="geometry" />
        </mxCell>
        <mxCell id="Q_lBp70K0h9LBj4ufqfi-30" value="corporateType" style="text;strokeColor=none;fillColor=none;align=left;verticalAlign=middle;spacingLeft=4;spacingRight=4;overflow=hidden;points=[[0,0.5],[1,0.5]];portConstraint=eastwest;rotatable=0;whiteSpace=wrap;html=1;" vertex="1" parent="1">
          <mxGeometry x="245" y="160" width="140" height="30" as="geometry" />
        </mxCell>
        <mxCell id="Q_lBp70K0h9LBj4ufqfi-31" value="employee_email" style="text;strokeColor=#b85450;fillColor=#f8cecc;align=left;verticalAlign=middle;spacingLeft=4;spacingRight=4;overflow=hidden;points=[[0,0.5],[1,0.5]];portConstraint=eastwest;rotatable=0;whiteSpace=wrap;html=1;" vertex="1" parent="1">
          <mxGeometry x="245" y="190" width="140" height="30" as="geometry" />
        </mxCell>
        <mxCell id="Q_lBp70K0h9LBj4ufqfi-32" value="Filters&lt;br&gt;Before Changes" style="text;html=1;align=center;verticalAlign=middle;resizable=0;points=[];autosize=1;strokeColor=none;fillColor=none;fontColor=#FF3657;fontStyle=5" vertex="1" parent="1">
          <mxGeometry x="100" y="60" width="110" height="40" as="geometry" />
        </mxCell>
        <mxCell id="Q_lBp70K0h9LBj4ufqfi-33" value="Filters&lt;br&gt;After Changes" style="text;html=1;align=center;verticalAlign=middle;resizable=0;points=[];autosize=1;strokeColor=none;fillColor=none;fontColor=#FF7003;fontStyle=5" vertex="1" parent="1">
          <mxGeometry x="265" y="60" width="100" height="40" as="geometry" />
        </mxCell>
        <mxCell id="Q_lBp70K0h9LBj4ufqfi-34" value="employee_id" style="text;strokeColor=#b85450;fillColor=#f8cecc;align=left;verticalAlign=middle;spacingLeft=4;spacingRight=4;overflow=hidden;points=[[0,0.5],[1,0.5]];portConstraint=eastwest;rotatable=0;whiteSpace=wrap;html=1;" vertex="1" parent="1">
          <mxGeometry x="245" y="220" width="140" height="30" as="geometry" />
        </mxCell>
        <mxCell id="Q_lBp70K0h9LBj4ufqfi-35" value="" style="swimlane;startSize=0;" vertex="1" parent="1">
          <mxGeometry x="65" y="50" width="360" height="220" as="geometry" />
        </mxCell>
        <mxCell id="Q_lBp70K0h9LBj4ufqfi-36" value="&lt;font color=&quot;#67ab9f&quot;&gt;What Changes Here ?&lt;br&gt;add employee email and id to search-partner-dto and search in table employee for this email or id according filters&lt;/font&gt;" style="shape=process;whiteSpace=wrap;html=1;backgroundOutline=1;" vertex="1" parent="1">
          <mxGeometry x="310" y="880" width="430" height="60" as="geometry" />
        </mxCell>
        <mxCell id="Q_lBp70K0h9LBj4ufqfi-37" value="" style="endArrow=none;dashed=1;html=1;rounded=0;entryX=0;entryY=0.75;entryDx=0;entryDy=0;" edge="1" parent="1" target="Q_lBp70K0h9LBj4ufqfi-9">
          <mxGeometry width="50" height="50" relative="1" as="geometry">
            <mxPoint x="175" y="710" as="sourcePoint" />
            <mxPoint x="225" y="660" as="targetPoint" />
          </mxGeometry>
        </mxCell>
        <mxCell id="Q_lBp70K0h9LBj4ufqfi-39" value="&lt;font style=&quot;font-size: 15px;&quot;&gt;return corporate list&lt;/font&gt;" style="edgeLabel;html=1;align=center;verticalAlign=middle;resizable=0;points=[];" vertex="1" connectable="0" parent="Q_lBp70K0h9LBj4ufqfi-37">
          <mxGeometry x="-0.2" y="-1" relative="1" as="geometry">
            <mxPoint x="13" as="offset" />
          </mxGeometry>
        </mxCell>
        <mxCell id="Q_lBp70K0h9LBj4ufqfi-41" value="" style="endArrow=none;dashed=1;html=1;dashPattern=1 3;strokeWidth=2;rounded=0;entryX=0.331;entryY=1;entryDx=0;entryDy=0;entryPerimeter=0;exitX=0.5;exitY=0;exitDx=0;exitDy=0;" edge="1" parent="1" source="Q_lBp70K0h9LBj4ufqfi-2" target="Q_lBp70K0h9LBj4ufqfi-35">
          <mxGeometry width="50" height="50" relative="1" as="geometry">
            <mxPoint x="150" y="330" as="sourcePoint" />
            <mxPoint x="200" y="280" as="targetPoint" />
          </mxGeometry>
        </mxCell>
      </root>
    </mxGraphModel>
  </diagram>
</mxfile>
